HIERARCHY
ROOT Hips
{
  OFFSET -102.467 93.6631 130.069
  CHANNELS 6 Xposition Yposition Zposition Zrotation Xrotation Yrotation
  JOINT LeftUpLeg
  {
    OFFSET 8.64259 1.95398 -2.38835
    CHANNELS 3 Zrotation Xrotation Yrotation
    JOINT LeftLeg
    {
      OFFSET 43.7702 0 0
      CHANNELS 3 Zrotation Xrotation Yrotation
      JOINT LeftFoot
      {
        OFFSET 40.6238 0 0
        CHANNELS 3 Zrotation Xrotation Yrotation
        JOINT LeftToeBase
        {
          OFFSET 12.7242 0 0
          CHANNELS 3 Zrotation Xrotation Yrotation
          End Site
          {
            OFFSET 0 0 0
          }
        }
      }
    }
  }
  JOINT RightUpLeg
  {
    OFFSET -8.2249 1.95398 -2.59336
    CHANNELS 3 Zrotation Xrotation Yrotation
    JOINT RightLeg
    {
      OFFSET 43.5653 0 0
      CHANNELS 3 Zrotation Xrotation Yrotation
      JOINT RightFoot
      {
        OFFSET 40.6238 0 0
        CHANNELS 3 Zrotation Xrotation Yrotation
        JOINT RightToeBase
        {
          OFFSET 12.7242 0 0
          CHANNELS 3 Zrotation Xrotation Yrotation
          End Site
          {
            OFFSET 0 0 0
          }
        }
      }
    }
  }
  JOINT Spine
  {
    OFFSET 0.165834 0.87714 6.61349
    CHANNELS 3 Zrotation Xrotation Yrotation
    JOINT Spine1
    {
      OFFSET 7.38963 1.71661e-005 0
      CHANNELS 3 Zrotation Xrotation Yrotation
      JOINT Spine2
      {
        OFFSET 11.9445 1.14441e-005 0
        CHANNELS 3 Zrotation Xrotation Yrotation
        JOINT Spine3
        {
          OFFSET 14.7254 4.19617e-005 0
          CHANNELS 3 Zrotation Xrotation Yrotation
          JOINT Spine4
          {
            OFFSET 10.9679 0 0
            CHANNELS 3 Zrotation Xrotation Yrotation
            JOINT RightShoulder
            {
              OFFSET 2.46616 -1.6653 3.69651
              CHANNELS 3 Zrotation Xrotation Yrotation
              JOINT RightArm
              {
                OFFSET 13.0012 0 0
                CHANNELS 3 Zrotation Xrotation Yrotation
                JOINT RightForeArm
                {
                  OFFSET 28.7848 1.52588e-005 0
                  CHANNELS 3 Zrotation Xrotation Yrotation
                  JOINT RightHand
                  {
                    OFFSET 26.5688 1.52588e-005 0
                    CHANNELS 3 Zrotation Xrotation Yrotation
                    End Site
                    {
                      OFFSET 0 0 0
                    }
                  }
                }
              }
            }
            JOINT LeftShoulder
            {
              OFFSET 2.38034 -1.29275 -3.7523
              CHANNELS 3 Zrotation Xrotation Yrotation
              JOINT LeftArm
              {
                OFFSET 16.3182 6.10351e-005 0
                CHANNELS 3 Zrotation Xrotation Yrotation
                JOINT LeftForeArm
                {
                  OFFSET 27.0901 0 0
                  CHANNELS 3 Zrotation Xrotation Yrotation
                  JOINT LeftHand
                  {
                    OFFSET 24.5451 1.52588e-005 0
                    CHANNELS 3 Zrotation Xrotation Yrotation
                    End Site
                    {
                      OFFSET 0 0 0
                    }
                  }
                }
              }
            }
            JOINT Neck
            {
              OFFSET 5.0226 -0.0266342 0
              CHANNELS 3 Zrotation Xrotation Yrotation
              JOINT Head
              {
                OFFSET 6.69363 2.86102e-005 0
                CHANNELS 3 Zrotation Xrotation Yrotation
                End Site
                {
                  OFFSET 0 0 0
                }
              }
            }
          }
        }
      }
    }
  }
}
MOTION
Frames:	6
Frame Time:	0.0416667
173.431 99.071 170.991 -94.481 24.5664 -86.3279 177.804 1.99175 86.4277 -13.2853 27.1885 5.432 53.9075 1.15965 9.74788 42.0297 -1.10617 2.41327 172.278 3.30026 87.4703 -20.1628 9.08606 2.35484 62.9623 8.4221 12.8233 26.0323 1.25682 4.483 -1.93632 6.79971 -90.1794 13.2849 -3.9288 0.135147 1.61981 -3.91904 0.308194 -20.9607 -3.78752 -1.05361 -0.948065 -3.78752 -1.05361 99.7274 -51.4903 -85.9037 33.7834 -17.5739 9.63178 6.09459 8.96538 -84.6663 -5.26822 -0.203564 -0.754908 -80.3677 -55.2013 93.2621 -19.8278 31.1067 -5.79926 -24.5488 -16.7621 -71.3998 8.74139 -0.642153 -10.0352 -3.35998 1.09928 -1.93467 -13.5165 0.956694 4.25617 
173.485 99.1276 171.053 -94.0605 24.9651 -86.3687 177.873 2.74476 86.3732 -14.2823 26.92 5.54711 54.782 2.14931 11.4346 40.4361 -1.24518 0.688505 172.328 3.68316 87.6189 -19.8428 8.19156 2.50343 62.6968 8.03291 12.0648 26.2622 1.15084 4.03768 -1.90612 6.79319 -90.1734 13.2978 -3.86602 0.139948 1.6326 -3.85612 0.310218 -20.9465 -3.72909 -1.03007 -0.933871 -3.7291 -1.03009 100.016 -51.606 -85.457 33.7179 -18.0443 8.98331 6.33596 9.05635 -84.3965 -5.75125 -0.222992 -0.730177 -83.1791 -57.6204 89.442 -18.4096 38.6527 -2.26633 -60.5558 -22.2743 -87.1984 25.9225 -2.03562 -12.2506 -2.18701 1.12232 -2.51869 -15.0833 0.967625 4.68191 
173.555 99.1271 171.033 -94.5768 25.2513 -86.2807 177.956 2.29572 86.2579 -14.2479 26.7555 5.46453 54.5521 1.98738 11.4459 40.901 -1.2553 0.918266 172.34 3.31073 87.4253 -20.0239 9.03175 2.28563 63.0754 8.41896 13.4922 25.1149 1.42918 4.44289 -1.83667 6.83908 -90.1271 13.206 -3.70619 0.207771 1.54027 -3.69346 0.37091 -21.0356 -3.59706 -0.91718 -1.02299 -3.59707 -0.917184 100.291 -52.2613 -85.0144 33.1754 -17.9131 8.99426 6.50798 9.03652 -84.3883 -5.94946 -0.227381 -0.793434 -83.7316 -57.8281 88.694 -18.5757 40.9941 -1.67035 -53.17 -24.2008 -85.7139 19.6239 -1.93414 -13.207 -1.98272 0.818432 -3.00076 -15.6123 0.725436 4.5045 
173.535 99.1703 170.963 -95.6148 25.4462 -86.4269 177.919 0.559388 85.7251 -12.5407 26.7274 5.21792 54.0958 1.89858 11.5286 40.6727 -1.29246 0.56359 171.892 2.71953 86.5753 -20.642 8.82417 2.28415 63.604 8.64257 14.1159 24.1609 1.61674 4.47469 -1.81175 6.93651 -90.0155 13.0144 -3.60411 0.409867 1.34831 -3.58256 0.56829 -21.2262 -3.56044 -0.69368 -1.21357 -3.56044 -0.693682 100.723 -51.433 -84.3795 34.2969 -18.1908 8.65602 6.88984 9.08298 -83.8986 -6.31063 -0.221219 -1.19435 -83.9102 -57.525 88.4176 -17.5512 30.763 -3.06498 -24.3716 -17.8828 -72.9869 13.3304 -1.72827 -16.4629 -1.65115 0.682975 -3.26454 -16.1692 0.667024 3.96495 
173.52 99.2308 170.905 -96.847 26.1297 -86.3655 177.9 -1.23842 85.1771 -11.082 26.1235 5.18461 53.4307 1.45351 11.2932 40.8209 -1.30323 0.598171 171.522 1.91834 85.8481 -20.792 7.32058 2.30783 63.8002 8.1151 13.343 24.4996 1.55407 4.49601 -1.72943 7.03461 -89.9387 12.8182 -3.40491 0.529892 1.15157 -3.37833 0.679396 -21.4191 -3.40659 -0.519152 -1.40641 -3.40658 -0.519151 101.046 -50.7779 -83.8983 34.9562 -18.3533 8.41626 6.92204 9.18307 -83.3118 -6.19219 -0.211109 -1.31894 -84.0001 -57.4618 88.2867 -17.8694 29.0964 -3.0208 -22.3148 -17.0671 -72.4684 13.7438 -1.98801 -17.7134 -1.09613 0.677518 -2.59916 -16.7871 0.728345 2.54843 
173.581 99.2817 170.811 -98.309 26.7549 -86.5425 177.991 -2.84197 84.4241 -10.3299 25.8765 4.79889 52.9781 1.18217 11.3574 41.1617 -1.21236 1.32644 171.056 1.32617 84.7026 -21.6408 6.24615 2.16742 64.0568 8.23253 13.6564 24.7454 1.54806 4.83073 -1.66936 7.17235 -89.8291 12.5441 -3.23492 0.716652 0.876943 -3.20027 0.858465 -21.6905 -3.30064 -0.289789 -1.67791 -3.30061 -0.289784 100.848 -50.9058 -84.2017 34.6574 -18.1637 8.65465 7.52668 9.07255 -83.7053 -6.74747 -0.224541 -1.40976 -84.1032 -57.6959 88.166 -17.7642 29.2229 -2.97854 -20.8072 -17.0714 -72.3018 16.2565 -2.67491 -20.0491 -0.0402696 0.741752 -1.6974 -18.0081 0.823578 1.23279 
